<?xml version="1.0" standalone="no"?>
<svg version="1.1" id="Layer_1" xmlns="http://www.w3.org/2000/svg" xmlns:xlink="http://www.w3.org/1999/xlink" x="0px" y="0px" width="595.279px" height="595.281px" viewBox="0 0 595.279 595.281" enable-background="new 0 0 595.279 595.281" xml:space="preserve">
<path id="color_x5F_2" fill="#50e3c2" d="M340.382,469.555h-55.42c0.101-0.121,0.159-0.252,0.143-0.389
	c-1.611-13.727-2.805-30.848-11.186-42.389c-2.011-2.768-4.534-4.346-7.139-6.479c-4.055-3.32-7.063-7.883-9.571-12.418
	c-1.156-2.09-2.199-4.285-3.105-6.551c0.038-0.125-0.01-0.217-0.108-0.283c-2.352-5.979-3.731-12.436-3.607-18.775
	c3.722,0.73,7.533,0.988,11.307,1.471l6.765,1.402c10.156,10.285,19.09,21.646,28.189,32.852
	c8.752,10.779,17.932,21.146,26.508,32.074C328.012,456.26,333.747,463.592,340.382,469.555z M387.556,329.739
	c-4.104-12.418-7.736-26.932-17.373-36.379c-12.821-12.57-30.555-15.746-47.999-16.543c-8.763,20.658-6.817,51.9-33.147,59.42
	c-21.34,6.098-25.916-22.66-23.146-37.695c-0.783-0.094-1.583-0.152-2.395-0.189c-3.168,0.129-7.696,0.336-11.212,0.574
	c-5.279,0.543-10.51,1.168-14.971,0.646c-2.557-0.301-5.031-0.777-7.409-1.428c-14.148,3.295-21.515,20.248-26.162,32.457
	c-4.604,12.096-7.564,24.668-11.677,36.916c-0.099,0.295-0.47,0.531-0.916,0.691c-0.347,1.033-0.696,2.063-1.038,3.086
	c-2.381,7.133-4.1,14.398-3.026,21.955c0.031,0.223,0.082,0.434,0.124,0.648c0.354-0.105,0.68-0.166,0.876-0.131
	c2.211,0.402,4.356,0.965,6.454,1.643l0.915,0.125l0.662,0.408c14.321,5.098,26.409,15.672,40.478,21.465
	c0.309,0.02,0.557,0.104,0.664,0.27c1.58,0.631,3.187,1.199,4.824,1.691c4.133-5.117,7.147-11.256,9.119-17.504
	c-2.541-6.449-4.041-13.324-3.652-20.262c-0.663-0.184-1.322-0.383-1.976-0.613c-2.241-0.795-4.296-1.955-6.292-3.236
	c-0.278,0.477-0.711,0.955-1.334,1.42c-3.575,2.674-7.332,1.959-11.142,0.117c-3.943-1.906-10.283-5.893-10.749-10.105l-1.028-0.85
	l1.247-1.063c0.359-1.018,1.124-2.031,2.419-3.018c-0.427-4.674,3.549-7.486,6.327-10.645c0.318-0.361,0.747-0.594,1.209-0.709
	c0.014-1.52,0.513-2.914,1.406-4.188l0.183-0.715h-0.709c-4.561,0.543-9.135,1.385-13.441-0.646
	c-4.866-2.293-0.668-5.518,2.231-6.869c5.109-2.381,11.525-3.063,17.04-3.783c4.66-0.609,9.542-1.125,14.218-0.389l1.107-0.023
	c0.097-0.18,0.322-0.375,0.737-0.576c3.756-1.818,7.292-2.104,10.978,0.018c3.006,1.729,4.587,5.205,6.708,7.838
	c2.366,2.938,4.779,5.842,7.28,8.662c1.178,1.33,2.356,2.668,3.608,3.93c0.462,0.467,0.92,0.943,1.417,1.377
	c0.388,0.336,0.556,0.473,0.588,0.518c0.499-0.041,0.926,0.051,1.039,0.313c8.232,5.42,16.021,11.396,23.902,17.244l27.001,17.912
	c0.525,0.305,1.049,0.607,1.574,0.912c-0.063-17.639-0.742-35.27-0.768-52.908c-0.002-0.885,2.896-1.326,2.896-0.777
	c0.027,18.137,0.75,36.262,0.777,54.396c0,0.256-0.246,0.475-0.59,0.643c7.228,4.246,14.361,8.771,20.57,14.256
	c17.865-0.281,35.006-6.73,52.63-9.049C402.143,377.1,395.323,353.247,387.556,329.739z M278.313,358.077l0.258,0.215
	c0.297-0.119,0.635-0.199,0.952-0.23C279.337,358.002,278.775,357.79,278.313,358.077z M235.905,378.088
	c0.307-0.295,0.529-0.627,0.632-0.98L235.905,378.088z M214.285,344.372c0.31,0.604,0.758,1.094,1.288,1.494l-1.218-2.787
	C214.105,343.477,214.047,343.911,214.285,344.372z M225.061,339.258c-1.092,0.217-2.171,0.428-3.232,0.623
	c-0.801,0.145-3.908,0.83-5.921,1.922L225.061,339.258z M437.091,460.163c-0.59,0.154-1.217,0.057-1.475-0.445
	c-7.979-15.576-20.898-28.967-26.789-45.494c0,12.473-3.477,25.371-8.377,36.297c-2.918,6.506-6.835,13.438-11.935,19.035h52.112
	C440.628,469.555,439.518,465.608,437.091,460.163z"></path>
<path id="color_x5F_1" d="M231.13,271.387c-2.459,1.424-4.729,2.088-7.568,2.277c-0.158,0.01-0.726,0.107-0.805-0.135
	c-3.132-9.561,0.277-19.367-0.583-29.141c-0.062-0.695,2.859-1.211,2.897-0.777c0.465,5.281-0.284,10.395-0.656,15.648
	c-0.178,2.512-1.508,15.635,4.522,12.139C229.412,271.127,232.319,270.698,231.13,271.387z M267.143,268.094
	c-0.297,2.404-0.781,5.533-3.593,6.02c-0.524,0.092-0.827,0.057-0.972-0.049c-6.773-1.482-5.145-11.633,1.545-11.982
	C267.323,261.915,267.422,265.825,267.143,268.094z M263.36,272.272c0.11-0.271,0.224-0.543,0.306-0.824
	c0.28-0.953,0.499-1.932,0.597-2.922c0.101-1.018,0.394-4.898-1.359-5.016c-0.385-0.027-1.19,1.502-1.352,1.953
	c-0.347,0.961-0.573,1.996-0.459,3.023C261.274,270.143,262.009,271.542,263.36,272.272z M256.609,242.209
	c-3.812-0.566-7.858-1.318-11.311-3.123c3.392-1.639,6.85-3.133,10.312-4.617c1.886-0.809,0.102-1.234-1.027-0.752
	c-4.028,1.727-8.06,3.447-11.989,5.389c-0.122,0.063-0.913,0.518-0.516,0.738c3.843,2.162,8.359,2.975,12.67,3.617
	C255.417,243.559,258.104,242.432,256.609,242.209z M244.251,225.954c3.101-1.934,6.612-2.332,10.19-2.365
	c0.578-0.004,3.289-1.152,1.891-1.139c-4.97,0.047-10.004,0.793-14.288,3.463C240.844,226.661,243.755,226.262,244.251,225.954z
	 M176.125,230.454c0.1-1.365-2.833-0.865-2.918,0.285c-0.452,6.162,0.499,12.039,2.924,17.73c0.497,1.164,3.36,0.307,2.897-0.777
	C176.667,242.153,175.684,236.471,176.125,230.454z M169.672,218.34c-1.236,0.145-2.54,1.438-0.504,1.199
	c3.757-0.441,7.24,0.838,9.965,3.408c0.598,0.563,3.257-0.518,2.721-1.023C178.475,218.737,174.19,217.807,169.672,218.34z
	 M438.261,458.415c0.42,0.816-0.34,1.531-1.17,1.748c-0.59,0.154-1.217,0.057-1.475-0.445
	c-7.979-15.576-20.898-28.967-26.789-45.494c0,12.473-3.477,25.371-8.377,36.297c-2.918,6.506-6.835,13.438-11.935,19.035
	c-4.938,5.422-10.984,9.596-18.317,10.92c-11.432,2.063-21.355-3.316-29.814-10.92c-6.635-5.963-12.371-13.295-17.228-19.482
	c-8.575-10.928-17.755-21.295-26.508-32.074c-9.1-11.205-18.034-22.564-28.189-32.852c-0.05-0.051-0.098-0.104-0.148-0.154
	c-0.001,0-0.001-0.002-0.002-0.002c-2.174-0.594-4.387-0.961-6.615-1.244c-3.773-0.484-7.585-0.742-11.307-1.473
	c-0.124,6.342,1.256,12.799,3.607,18.775c0.099,0.066,0.146,0.158,0.108,0.283c0.906,2.266,1.949,4.461,3.105,6.551
	c2.508,4.535,5.516,9.098,9.571,12.418c2.605,2.133,5.127,3.711,7.139,6.479c8.381,11.541,9.575,28.662,11.186,42.389
	c0.016,0.137-0.042,0.268-0.143,0.389c-0.568,0.682-2.68,1.029-2.755,0.389c-0.819-6.975-1.714-13.955-3.215-20.82
	c-1.66-7.59-3.637-16.773-8.927-22.789c-2.56-2.912-6.073-4.66-8.68-7.564c-2.752-3.064-5.166-6.451-7.075-10.109
	c-0.569-1.09-1.113-2.199-1.63-3.322c-2.06,5.268-4.872,10.328-8.492,14.623c0.047,0.012,0.093,0.025,0.141,0.037
	c0.939,0.236-1.634,1.385-2.36,1.201c-1.702-0.43-3.366-0.951-5.003-1.537c-1.334,6.473-3.075,12.898-5.694,18.977
	c-5.932,13.76-15.937,26.135-30.535,31.072c-8.479,2.869-18.555,3.988-27.183,0.967c-4.683-1.639-7.637-6.104-9.649-10.461
	c-4.183-9.057-5.47-19.283-5.701-29.174c-0.174-7.463,0.07-15.018,1.131-22.416c1.656-11.545,4.844-24.186-5.64-32.549
	c-0.01-0.008-0.013-0.018-0.021-0.023c-4.902-2.4-6.109-7.73-6.086-13.568c0.034-8.734,2.13-17.293,6.503-24.885
	c2.97-5.154,6.847-10.469,13.228-11.01c0.284-0.023,0.501-0.01,0.671,0.025c0-8.203,0-16.408,0-24.613
	c-4.287,0.453-8.66,0.016-12.646-1.594c-7.097-2.863-11.69-9.928-14.256-16.84c-5.875-15.828-6.164-34.594-2.664-51.018
	c3.068-14.4,10.377-34.281,28.297-33.211c0.029,0.002,0.05,0.008,0.078,0.01c2,0,3.915,0.291,5.736,0.83
	c2.221-0.684,4.651-1,7.322-0.84c0.029,0.002,0.05,0.008,0.078,0.01c7.167-0.004,13.228,3.758,17.923,9.084
	c0.718-6.555,5.006-12.611,9.377-17.344c6.131-6.637,13.453-12.584,21.529-16.699c1.31-0.668,2.819-1.375,4.472-2.08
	c0.595-0.412,1.096-0.758,1.494-1.029c-1.679-1.826-3.123-4.039-4.21-6.428c-3.126-4.008-6.104-9.516-4.125-14.42
	c2.841-7.035,11.849-5.146,15.664-3.979c-0.729-2.98-0.164-6.256,1.22-9.289c0.515-3.969,2.149-8.094,6.343-10.193
	c4.431-2.219,8.096-1.473,10.754-0.033c1.334,0.559,2.593,1.51,3.723,2.914c0.455-1.299,1.194-2.564,2.166-3.762
	c1.136-3.48,3.421-7.799,7.977-9.73c8.248-3.496,19.132-2.521,19.866,3.738c0.054,0.463,0.103,0.879,0.149,1.275
	c0.519,0.854,0.906,1.855,1.159,3c4.992-4.566,12.78-6.443,19.139-3.891c7.123,2.859,8.438,8.816,6.065,14.672
	c0,0.168-0.002,0.314-0.006,0.447c1.47-0.23,2.981-0.309,4.496-0.242c2.219-0.18,5.108-0.066,8.344,0.92
	c1.813,0.551,3.099,1.846,4.011,3.477c3.524,2.932,3.987,6.318,2.121,9.414c0.037,1.072,0.023,1.99,0,2.635
	c3.668,0.785,6.95,2.994,7.922,6.955c1.004,4.088-0.68,7.51-3.629,9.805c4.959,1.566,10.146,5.414,7.322,11.223
	c-1.807,3.719-5.26,6.174-9.121,7.385c-1.078,0.602-1.964,0.896-2.682,1.02c1.525,1.418,2.693,3.199,3.02,5.063
	c0.985,2.502,0.889,5.918-2.148,10.373c-5.417,7.945-13.018,6.973-17.006,5.721c-0.766-0.006-1.528-0.049-2.282-0.129
	c4.791,13.646,5.89,27.797,0.797,41.758c-2.894,7.932-7.782,18.584-16.494,21.615c0.868,0.898,1.828,1.711,2.898,2.439
	c0.295-0.148,0.608-0.248,0.884-0.248c3.709,0.004,7.543,0.023,11.429,0.137c0.72-0.566,2.873-0.705,2.667-0.277
	c-0.058,0.119-0.109,0.244-0.167,0.365c16.732,0.674,34.175,3.393,46.875,14.418c11.063,9.605,15.132,23.209,19.628,36.664
	c8.269,24.75,15.459,49.895,22.271,75.08c0.223,0.822-1.333,1.465-2.262,1.279c-0.599,0.07-1.195,0.15-1.793,0.23
	c0.033,0.164,0.063,0.33,0.094,0.494c0.668-0.117,1.333,0.072,1.436,0.715C412.62,424.881,428.89,440.12,438.261,458.415z
	 M298.206,267.571c-2.388,0.719-4.969,0.953-7.324,0.947c-1.452-0.004,1.22-1.244,1.863-1.242
	c9.998,0.027,13.242-8.828,10.251-17.277c-0.451-1.271-1.009-2.57-1.694-3.793c-3.021-2.756-6.697-4.17-8.988-4.146
	c-0.723,0.715-1.374,1.703-1.983,2.863c-0.007,0.014-0.02,0.023-0.028,0.037c0.443,1.006,0.512,2.109-0.004,3.33
	c-1.879,4.443-9.223,6.551-4.711,12.068c0.649,0.793-2.13,1.791-2.703,1.09c-3.634-4.445-0.382-7.205,2.792-10.572
	c5.473-5.811-3.145-9.252-7.506-12.193c-11.741-7.92-17.435-20.213-20.239-33.549c-2.261,2.297-7.634,7.104-16.208,10.928
	c-3.312,1.477-7.719,2.646-12.335,3.563c-7.522,2.344-15.328,3.656-22.841,3.93c0.454,1.277,0.848,2.543,1.175,3.781
	c3.21,12.148,4.21,25.273,2.601,37.756c-0.476,3.689-1.22,7.584-2.333,11.4c0.207,0.023,0.361,0.096,0.418,0.229
	c7.054,16.295,23.864,23.471,41.049,21.93c12.201-1.096,27.51-5.064,33.22,9.271c0.209,0.523-2.627,1.455-2.897,0.775
	c-2.321-5.826-6.345-8.557-11.194-9.689c-1.367,8.275-0.813,17.492,2.492,25.232c4.047,9.479,12.345,15.146,22.274,8.898
	c20.135-12.67,17.625-37,26.228-56.422c-2.933-0.096-5.847-0.137-8.722-0.152c0.034,0.016,0.063,0.035,0.099,0.051
	c0.315,0.146-1.955,1.342-2.73,0.986C303.473,275.422,300.718,271.971,298.206,267.571z M194.468,350.592
	c2.606-8.877,5.294-17.723,9.116-26.199c4.925-10.922,11.906-23.121,23.896-26.982c-8.85-2.969-16.127-8.594-20.689-17.258
	c-3.143,8.609-8.436,16.334-17.186,19.771c-2.435,0.957-5.027,1.637-7.662,1.986c0,6.699,0,13.4,0,20.102
	c0.042-0.004,0.085-0.008,0.124-0.008c9.907,0.254,11.595,15.957,11.727,23.156c0.003,0.168-0.088,0.318-0.236,0.455
	C194.067,347.272,194.354,348.932,194.468,350.592z M309.13,268.803l-3.914,2.855C306.638,271.022,307.945,270.01,309.13,268.803z
	 M175.619,201.358c9.716,4.582,16.376,16.162,18.968,25.977c3.21,12.148,4.21,25.273,2.601,37.756
	c-0.987,7.656-3.122,16.18-7.343,23.088c-0.026,0.145-0.12,0.285-0.258,0.414c-3.134,4.979-7.382,9.078-13.118,11.332
	c-0.161,0.063-0.326,0.119-0.488,0.18c7.575,0.846,15.449-1.711,20.647-7.422c11.069-12.162,12.45-31.555,11.125-47.166
	c-0.632-7.445-1.836-14.996-4.359-22.059c-1.144-3.201-2.932-6.75-5.227-10.057c-0.047-0.066-0.093-0.137-0.141-0.205
	c-4.62-6.576-11.255-12.137-18.86-11.967c-0.042,0.002-0.076-0.004-0.116-0.004c-0.086,0.01-0.171,0.016-0.253,0.01
	C177.689,201.168,176.634,201.219,175.619,201.358z M194.618,245.516c-0.632-7.447-1.836-14.996-4.359-22.059
	c-2.824-7.904-9.56-17.934-18.216-21.17c-3.8,1.508-6.845,4.465-9.277,8.051c0.584,0.027,1.094,0.295,1.125,0.898
	c1.322,25.34,5.186,56.318,24.248,75.004C194.936,274.331,195.729,258.596,194.618,245.516z M155.768,226.856
	c-4.443,16.789-5.156,36.182,0.272,52.828c2.634,8.08,7.436,17.227,16.254,19.705c4.247-1.141,8.177-3.387,11.199-6.709
	c1.162-1.277,2.212-2.637,3.168-4.061c-19.949-18.416-24.16-49.613-25.609-75.482C158.599,217.569,156.906,222.557,155.768,226.856z
	 M167.937,300.167c-6.785-3-11.214-9.865-13.713-16.598c-5.874-15.828-6.164-34.592-2.664-51.018
	c2.377-11.158,7.306-25.6,17.739-31.041c-1.067-0.205-2.157-0.305-3.268-0.281c-0.042,0.002-0.076-0.004-0.116-0.004
	c-0.086,0.01-0.171,0.014-0.253,0.01c-13.637-0.814-20.125,14.652-23.029,25.621c-4.443,16.789-5.156,36.182,0.271,52.828
	c2.702,8.285,7.668,17.709,16.921,19.9C162.484,300.215,165.234,300.403,167.937,300.167z M170.888,301.559
	c0,11.941,0,23.883,0,35.826c2.866-0.049,5.712,0.203,8.268,1.049c-0.069-0.096-0.111-0.209-0.111-0.35c0-11.977,0-23.951,0-35.928
	c-2.509,0.092-5.019-0.146-7.441-0.748C171.366,301.463,171.127,301.512,170.888,301.559z M168.616,373.809
	c-1.637,0.012-0.919-1.828,0.563-1.994c3.642-0.41,7.48-3.113,7.368-7.035c-0.499,0.23-1.013,0.445-1.563,0.627
	c-1.135,0.375-2.986-0.1-1.025-0.744c5.446-1.791,7.019-6.992,5.668-11.994c-0.248,0.166-0.494,0.318-0.734,0.457
	c-1.045,0.598-3.55-0.072-1.848-1.047c5.146-2.943,7.819-9.664,0.446-11.824c-5.593-1.639-11.893-0.795-17.566,0.043
	c-1.99,0.293-1.132-1.596,0.34-1.814c2.349-0.346,5.004-0.744,7.725-0.957c0-3.281,0-6.564,0-9.848
	c-0.283,0.215-0.672,0.385-1.093,0.42c-5.6,0.475-9.517,7.705-11.572,12.262c-2.261,5.016-4.084,10.285-4.528,15.809
	c-0.362,4.504-1.174,10.326,1.049,14.521C154.49,375.684,164.174,378.469,168.616,373.809z M234.356,418.665
	c-16.109-6.596-29.6-19.488-46.788-23.318c0.746,2.412,2.061,4.547,3.285,6.822c3.78,7.035,6.858,14.402,9.754,21.838
	c0.462,1.186-2.415,2.016-2.897,0.775c-3.062-7.859-6.324-15.639-10.424-23.02c-1.37-2.469-2.762-4.883-3.099-7.734
	c-0.804-6.795,0.03-13.387,2.145-19.889c3.055-9.391,7.664-19.486,3.787-29.311c-0.188-0.475,0.167-0.891,0.687-1.143
	c-0.39-6.613-2.175-18.832-8.863-20.191c0,4.742,0,9.486,0,14.229c0,0.584-1.082,1.043-1.924,1.033
	c1.005,0.396,1.963,0.885,2.845,1.504c4.183,2.938,2.198,7.328-0.763,10.344c0.011,0.018,0.028,0.031,0.035,0.053
	c1.837,4.969,0.634,9.551-2.886,12.453c0.089,0.098,0.149,0.219,0.167,0.369c0.574,4.91-3.415,8.342-7.777,9.721
	c0.063,0.096,0.043,0.223-0.101,0.389c-2.938,3.396-8.102,4.234-12.588,3.803c6.285,7.039,5.538,16.482,4.057,25.74
	c-1.257,7.855-2.011,15.742-1.958,23.707c0.064,9.82,0.754,20.232,4.408,29.459c1.984,5.012,4.906,11.215,10.417,13.033
	c9.809,3.238,21.629,1.361,30.454-3.721C223.169,455.915,230.756,436.883,234.356,418.665z M247.547,381.606
	c-0.663-0.186-1.322-0.383-1.976-0.615c-2.241-0.795-4.296-1.953-6.292-3.236c-0.278,0.477-0.711,0.955-1.334,1.422
	c-3.575,2.672-7.332,1.959-11.142,0.117c-3.943-1.906-10.283-5.895-10.749-10.105c-0.07-0.635-0.006-1.273,0.219-1.914
	c0.359-1.018,1.124-2.029,2.419-3.016c-0.427-4.674,3.549-7.488,6.327-10.646c0.318-0.359,0.747-0.592,1.209-0.707
	c0.014-1.521,0.513-2.916,1.406-4.188c0.203-0.291,0.428-0.572,0.67-0.85c-0.398,0.041-0.797,0.086-1.196,0.133
	c-4.561,0.543-9.135,1.385-13.441-0.645c-4.866-2.295-0.668-5.52,2.231-6.871c5.109-2.379,11.525-3.063,17.04-3.783
	c4.66-0.609,9.542-1.125,14.218-0.389c0.351,0.055,0.701,0.115,1.05,0.188c-0.002-0.066,0.018-0.137,0.058-0.209
	c0.097-0.18,0.322-0.375,0.737-0.576c3.756-1.818,7.292-2.105,10.978,0.016c3.006,1.73,4.587,5.207,6.708,7.84
	c2.366,2.938,4.779,5.84,7.28,8.662c1.178,1.33,2.356,2.666,3.608,3.93c0.462,0.465,0.92,0.943,1.417,1.375
	c0.388,0.338,0.556,0.473,0.588,0.518c0.499-0.039,0.926,0.051,1.039,0.313c8.232,5.42,16.021,11.398,23.902,17.244
	c7.67,5.691,15.427,11.256,23.767,16.053c1.074,0.617,2.153,1.238,3.234,1.861c0.525,0.303,1.049,0.607,1.574,0.912
	c-0.063-17.641-0.742-35.27-0.768-52.91c-0.002-0.883,2.896-1.324,2.896-0.775c0.027,18.135,0.75,36.262,0.777,54.396
	c0,0.256-0.246,0.473-0.59,0.643c7.228,4.246,14.361,8.77,20.57,14.256c17.865-0.281,35.006-6.732,52.63-9.051
	c-6.472-23.896-13.291-47.748-21.059-71.256c-4.104-12.42-7.736-26.932-17.373-36.381c-12.821-12.568-30.556-15.744-47.999-16.541
	c-8.762,20.656-6.817,51.898-33.147,59.42c-21.34,6.096-25.916-22.66-23.146-37.697c-0.783-0.094-1.583-0.152-2.395-0.188
	c-3.583-0.158-7.409,0.184-11.212,0.574c-5.279,0.543-10.51,1.168-14.971,0.645c-2.557-0.299-5.031-0.777-7.409-1.428
	c-14.148,3.295-21.515,20.25-26.162,32.457c-4.604,12.098-7.564,24.67-11.677,36.918c-0.099,0.293-0.47,0.531-0.916,0.689
	c-0.347,1.035-0.696,2.064-1.038,3.088c-2.381,7.133-4.1,14.398-3.026,21.955c0.031,0.221,0.082,0.434,0.124,0.648
	c0.354-0.107,0.68-0.166,0.876-0.131c2.211,0.4,4.356,0.963,6.454,1.643c0.528,0.17,1.054,0.348,1.576,0.531
	c14.321,5.098,26.409,15.674,40.478,21.467c0.309,0.02,0.557,0.104,0.664,0.27c1.58,0.631,3.187,1.197,4.824,1.691
	c4.133-5.119,7.147-11.256,9.119-17.504C248.658,395.418,247.158,388.543,247.547,381.606z M277.751,359.006
	c0.067-0.295,0.401-0.543,0.821-0.715c0.297-0.119,0.635-0.199,0.952-0.23c-0.187-0.059-0.749-0.271-1.21,0.018
	C278.077,358.223,277.866,358.499,277.751,359.006z M399.243,446.917c5.163-13.576,8.502-29.324,5.514-43.797
	c-15.732,2.504-31.125,7.693-47.073,8.488c4.434,4.17,8.337,8.879,11.346,14.432c0.195,0.359-2.538,1.439-2.897,0.775
	c-3.215-5.932-7.445-10.889-12.26-15.244c-0.002-0.002-0.004-0.004-0.007-0.006c-8.733-7.896-19.411-13.781-29.622-19.695
	c-16.121-9.336-30.032-21.664-45.493-31.959c-2.502-0.652-6.48-5.439-6.836-5.84c-2.716-3.064-5.371-6.191-7.927-9.393
	c-3.504-4.387-6.519-11.424-13.869-7.865c-0.077,0.037-0.156,0.068-0.235,0.096c0.58,0.16,1.156,0.34,1.725,0.551
	c1.011,0.375-1.624,1.502-2.352,1.23c-7.641-2.832-16.266-1.006-24.197,0.568c-1.092,0.215-2.171,0.428-3.232,0.621
	c-0.801,0.146-3.908,0.832-5.921,1.922c-0.698,0.379-1.262,0.805-1.554,1.275c-0.248,0.4-0.306,0.832-0.069,1.293
	c0.31,0.604,0.758,1.096,1.288,1.496c1.51,1.145,3.709,1.523,5.476,1.455c2.907-0.111,5.779-0.578,8.67-0.834
	c0.187-0.156,0.378-0.313,0.579-0.465c0.54-0.412,1.275-0.613,1.943-0.68c0.195-0.018,1.207,0.014,0.67,0.424
	c-0.244,0.188-0.475,0.377-0.698,0.57c1.466,0.049-0.419,1.225-1.317,1.338c-1.888,2.277-2.359,4.953-0.934,8.123
	c0.204,0.455-2.598,1.443-2.897,0.777c-0.245-0.545-0.433-1.074-0.57-1.592c-2.413,2.432-5.279,4.975-4.899,8.598
	c0.006,0.057-0.001,0.111-0.01,0.166c0.306,0.229,0.315,0.582-0.344,1.016c-5.675,3.74,0.444,9.123,4.3,11.275
	c2.013,1.125,4.325,2.414,6.565,2.939c1.555,0.367,2.984-0.109,3.799-0.891c0.307-0.295,0.529-0.629,0.632-0.982
	c0.126-0.436,0.073-0.891-0.201-1.318c-0.614-0.42-1.229-0.84-1.847-1.252c-0.094-0.033-0.172-0.072-0.274-0.104
	c-0.37-0.113-0.533-0.275-0.565-0.453c-1.741-1.135-3.525-2.189-5.436-3.006c-0.329-0.141,1.933-1.334,2.729-0.996
	c1.788,0.762,3.48,1.74,5.136,2.801c1.285,0.414,2.376,1.129,3.007,2c3.229,2.193,6.459,4.383,10.137,5.553
	c0.655-0.104,1.249-0.039,1.231,0.246c-0.002,0.031-0.002,0.064-0.004,0.098c0.136,0.033,0.269,0.076,0.406,0.105
	c6.404,1.424,13.044,1.316,19.399,2.971c0.329-0.021,0.612,0.029,0.765,0.184c9.793,9.896,18.427,20.799,27.19,31.592
	c7.793,9.6,16.119,18.738,23.735,28.48c7.013,8.967,13.949,18.467,22.804,25.738c6.627,5.443,15.199,10.965,24.233,9.672
	C384.505,477.192,394.198,460.184,399.243,446.917z M453.267,207.874c-5.459,7.311-12.637,12.105-20.412,16.611
	c-6.493,3.766-9.827,8.203-9.73,15.955c0.067,5.432,0.539,10.789-0.483,16.16c-0.157,0.824-3.044,1.328-2.876,0.445
	c0-0.002,0-0.004,0.001-0.006c-0.49,0.211-1.017,0.383-1.249,0.383c-6.195,0-12.391,0-18.585,0c-0.903,0.549-2.5,0.539-2.336-0.463
	c1.835-11.229-2.064-23.965,1.903-34.744c2.551-6.928,8.535-9.76,14.488-13.385c8.629-5.252,21.404-17.18,11.803-27.826
	c-4.902-5.436-18.576-7.807-21.194,1.078c-0.326,1.107-3.079,1.49-2.938,0.395c-7.271,0-14.541,0-21.812,0
	c-1.429,0-0.767-0.891,0.125-1.373c-2.507-16.033,14.223-26.977,28.073-30.137c13.564-3.094,32.131-1.816,41.473,9.908
	C459.415,173.303,463.288,194.452,453.267,207.874z M455.589,196.653c1.418-7.98-0.002-16.738-2.935-24.252
	c-6.262-16.043-19.991-21.973-36.575-21.217c-15.318,0.697-36.388,11.461-33.133,29.615c6.446,0,12.893,0,19.338,0
	c2.824-5.934,10.499-7.357,16.629-6.039c9.16,1.969,15.742,10.441,11.836,19.984c-2.315,5.658-6.469,9.809-11.523,13.109
	c-4.161,2.717-9.309,4.785-12.917,8.252c-4.481,4.309-5.353,10.354-5.332,16.332c0.024,7.961,0.813,15.877-0.399,23.783
	c6.442,0,12.883,0,19.325,0c1.218-8.389-2.44-19.914,3.781-26.676c5.202-5.652,12.907-8.09,18.737-13.033
	C448.558,211.309,454.136,204.823,455.589,196.653z M401.087,266.926c0,0.125,0,0.252,0,0.377c5.908,0,11.817,0,17.728,0
	c0.677-0.586,2.671-0.813,2.671-0.377c0,7.188,0,14.377,0,21.563c0,0.867-2.896,1.301-2.896,0.777c0-0.125,0-0.252,0-0.377
	c-0.024,0.002-0.053,0.006-0.072,0.006c-5.889,0-11.775,0-17.663,0c-0.685,0.582-2.665,0.805-2.665,0.371c0-7.188,0-14.377,0-21.563
	C398.189,266.836,401.087,266.403,401.087,266.926z M401.087,268.502c0,6.398,0,12.797,0,19.193c5.834,0,11.666,0,17.5,0
	c0-6.398,0-12.801,0-19.199c-0.023,0.002-0.051,0.006-0.071,0.006C412.706,268.502,406.896,268.502,401.087,268.502z" fill="#01c6ac"></path>
</svg>